# xmcd
#
# Track frame offsets:
#	150
#	15248
#	26821
#	41676
#	58539
#	73623
#	87631
#	100447
#	116401
#	133839
#	147676
#
# Disc length: 2162 seconds
#
# Revision: 1
# Processed by: cddbd v1.5.2PL0 Copyright (c) Steve Scherf et al.
# Submitted via: audiograbber 1.83.01
#
DISCID=a008700b
DTITLE=Jennings, Waylon - The Box Set Series - CD4
DYEAR=1900
DGENRE=Country
TTITLE0=Luckenbach, Texas (Back To The Basics Of Love) with Willie Nelson
TTITLE1=Mammas Don't Let Your Babies Grow Up To Be Cowboys  (with Willie Nelson
TTITLE1=)
TTITLE2=There Ain't No Good Chain Gang (with Johnny Cash)
TTITLE3=Night Life (with George Jones)
TTITLE4=Wild Side Of Life - It Wasn't God Who Made Honky Tonk Angels (with Jess
TTITLE4=i Colter)
TTITLE5=Storms Never Last (with Jessi Colter)
TTITLE6=Just To Satisfy You (with Willie Nelson)
TTITLE7=Leave Them Boys Alone (with Hank Williams Jr. and Ernest Tubb)
TTITLE8=The Conversation (with Hank Williams Jr.)
TTITLE9=Highwayman (with Willie Nelson, Johnny Cash and Kris Kristofferson)
TTITLE10=Silver Stallion (with Willie Nelson, Johnny Cash and Kris Kristofferso
TTITLE10=n)
EXTD=
EXTT0=
EXTT1=
EXTT2=
EXTT3=
EXTT4=
EXTT5=
EXTT6=
EXTT7=
EXTT8=
EXTT9=
EXTT10=
PLAYORDER=
